# AST/ASF file generated using VICON BodyLanguage
# -----------------------------------------------
:version 1.10
:name VICON
:units
  mass 1.0
  length 0.45
  angle deg
:documentation
   .ast/.asf automatically generated from VICON data using
   VICON BodyBuilder and BodyLanguage model FoxedUp or BRILLIANT.MOD
:root
   order TX TY TZ RX RY RZ
   axis XYZ
   position 0 0 0  
   orientation 0 0 0 
:bonedata
  begin
     id 1 
     name lhipjoint
     direction 0.661853 -0.702389 0.261917 
     length 2.64193 
     axis 0 0 0  XYZ
  end
  begin
     id 2 
     name lfemur
     direction 0.34202 -0.939693 0  
     length 7.01722  
     axis 0 0 20  XYZ
    dof rx ry rz
    limits (-160.0 20.0)
           (-70.0 70.0)
           (-60.0 70.0)
  end
  begin
     id 3 
     name ltibia
     direction 0.34202 -0.939693 0   
     length 8.25008   
     axis 0 0 20   XYZ
    dof rx
    limits (-10.0 170.0)
  end
  begin
     id 4 
     name lfoot
     direction 0.0709916 -0.195048 0.978221   
     length 2.31941   
     axis -90 7.62852e-016 20   XYZ
    dof rx rz
    limits (-45.0 90.0)
           (-70.0 20.0)
  end
  begin
     id 5 
     name ltoes
     direction 1.53586e-011 -4.22017e-011 1   
     length 1.16486   
     axis -90 7.62852e-016 20   XYZ
    dof rx
    limits (-90.0 20.0)
  end
  begin
     id 6 
     name rhipjoint
     direction -0.638185 -0.721362 0.268992   
     length 2.57244  
     axis 0 0 0  XYZ 
  end
  begin
     id 7 
     name rfemur
     direction -0.34202 -0.939693 0   
     length 7.07017   
     axis 0 0 -20   XYZ
    dof rx ry rz
    limits (-160.0 20.0)
           (-70.0 70.0)
           (-70.0 60.0)
  end
  begin
     id 8 
     name rtibia
     direction -0.34202 -0.939693 0   
     length 8.20386   
     axis 0 0 -20   XYZ
    dof rx
    limits (-10.0 170.0)
 end
 begin
     id 9 
     name rfoot
     direction -0.0822429 -0.225961 0.970658   
     length 2.32215  
     axis -90 -7.62852e-016 -20   XYZ
    dof rx rz
    limits (-45.0 90.0)
           (-20.0 70.0)
  end
  begin
     id 10 
     name rtoes
     direction -1.53597e-011 -4.21689e-011 1   
     length 1.16333   
     axis -90 -7.62852e-016 -20   XYZ
    dof rx
    limits (-90.0 20.0)
  end
  begin
     id 11 
     name lowerback
     direction -0.0131557 0.998589 -0.0514484   
     length 2.14993   
     axis 0 0 0   XYZ
    dof rx ry rz
    limits (-20.0 45.0)
           (-30.0 30.0)
           (-30.0 30.0)
  end
  begin
     id 12 
     name upperback
     direction -0.000776481 0.999993 0.00352685   
     length 2.15301   
     axis 0 0 0   XYZ
    dof rx ry rz
    limits (-20.0 45.0)
           (-30.0 30.0)
           (-30.0 30.0)
  end
  begin
     id 13 
     name thorax
     direction 0.00438186 0.999609 0.0276143   
     length 2.15424   
     axis 0 0 0   XYZ
    dof rx ry rz
    limits (-20.0 45.0)
           (-30.0 30.0)
           (-30.0 30.0)
  end
  begin
     id 14 
     name lowerneck
     direction -0.0488006 0.998094 0.0377807   
     length 1.90481   
     axis 0 0 0   XYZ
    dof rx ry rz
    limits (-20.0 45.0)
           (-30.0 30.0)
           (-30.0 30.0)
  end
  begin
     id 15 
     name upperneck
     direction 0.0443769 0.990702 -0.12861   
     length 1.91305   
     axis 0 0 0   XYZ
    dof rx ry rz
    limits (-20.0 45.0)
           (-30.0 30.0)
           (-30.0 30.0)
  end
  begin
     id 16
     name head
     direction 0.0165599 0.998647 -0.0492982  
     length 1.92369  
     axis 0 0 0   XYZ
    dof rx ry rz
    limits (-20.0 45.0)
           (-30.0 30.0)
           (-30.0 30.0)
  end
  begin
     id 17 
     name lclavicle
     direction 0.911936 0.410197 -0.0105506  
     length 3.52622  
     axis 0 0 0   XYZ
    dof ry rz
    limits (-20.0 10.0)
           (0.0 20.0)
  end
  begin
     id 18 
     name lhumerus
     direction 1 -4.48974e-011 -2.48591e-028   
     length 5.47651   
     axis 180 -30 -90   XYZ
    dof rx ry rz
    limits (-60.0 90.0)
           (-90.0 90.0)
           (-90.0 90.0)
  end
  begin
     id 19
     name lradius
     direction 1 -4.48938e-011 -4.40099e-027   
     length 3.09058   
     axis 180 -30 -90   XYZ
    dof rx
    limits (-10.0 170.0)
  end
  begin
     id 20
     name lwrist
     direction 1 -4.49042e-011 -2.99852e-027   
     length 1.54529   
     axis 1.95339e-015 90 90   XYZ
    dof ry
    limits (-180.0 0.0)
 end
  begin
     id 21 
     name lhand
     direction 1 -4.48815e-011 -5.98193e-027   
     length 0.771611   
     axis 3.82337e-015 90 90   XYZ
    dof rx rz
    limits (-90.0 90.0)
           (-45.0 45.0)
  end
  begin
     id 22 
     name lfingers
     direction 1 -4.49034e-011 -1.1993e-026   
     length 0.622093   
     axis 7.64668e-015 90 90   XYZ
    dof rx
    limits (0.0 90.0)
  end
  begin
     id 23
     name lthumb
     direction 0.707107 -6.34867e-011 0.707107   
     length 0.893204   
     axis -90 45 -1.62303e-014   XYZ
    dof rx rz
    limits (-45.0 45.0)
           (-45.0 45.0)
  end
  begin
     id 24 
     name rclavicle
     direction -0.93442 0.355634 -0.0195692   
     length 3.62463  
     axis 0 0 0   XYZ 
    dof ry rz
    limits (-10.0 20.0)
           (-20.0 0.0)
  end
  begin
     id 25 
     name rhumerus
     direction -1 -4.48957e-011 -1.19147e-027  
     length 5.14182   
     axis 180 30 90   XYZ
    dof rx ry rz
    limits (-90.0 60.0)
           (-90.0 90.0)
           (-90.0 90.0)
  end
  begin
     id 26 
     name rradius
     direction -1 -4.48952e-011 -3.81062e-027   
     length 3.35565   
     axis 180 30 90   XYZ
    dof rx
    limits (-10.0 170.0)
  end
  begin
     id 27 
     name rwrist
     direction -1 -4.48973e-011 -2.99621e-027   
     length 1.67782   
     axis 1.95339e-015 -90 -90   XYZ
    dof ry
    limits (-180.0 0.0)
  end
  begin
     id 28
     name rhand
     direction -1 -4.48895e-011 -5.98727e-027   
     length 0.801042   
     axis 3.82337e-015 -90 -90   XYZ
    dof rx rz
    limits (-90.0 90.0)
           (-45.0 45.0)
  end
  begin
     id 29
     name rfingers
     direction -1 -4.49065e-011 -1.19972e-026   
     length 0.645821   
     axis 7.64668e-015 -90 -90   XYZ
    dof rx
    limits (0.0 90.0)
  end
  begin
     id 30
     name rthumb
     direction -0.707107 -6.34957e-011 0.707107   
     length 0.927273   
     axis -90 -45 1.62303e-014   XYZ
    dof rx rz
    limits (-45.0 45.0)
           (-45.0 45.0)
  end
:hierarchy
  begin
    root lhipjoint rhipjoint lowerback
    lhipjoint lfemur
    lfemur ltibia
    ltibia lfoot
    lfoot ltoes
    rhipjoint rfemur
    rfemur rtibia
    rtibia rfoot
    rfoot rtoes
    lowerback upperback
    upperback thorax
    thorax lowerneck lclavicle rclavicle
    lowerneck upperneck
    upperneck head
    lclavicle lhumerus
    lhumerus lradius
    lradius lwrist
    lwrist lhand lthumb
    lhand lfingers
    rclavicle rhumerus
    rhumerus rradius
    rradius rwrist
    rwrist rhand rthumb
    rhand rfingers
  end

#!OML:ASF E:\Style4\Style4.ASF
:FULLY-SPECIFIED
:DEGREES
416
root 0.565023 17.7096 -0.382154 0.0432668 -26.5401 3.50577
lowerback 7.76845 0.393028 -2.45239
upperback 4.32989 0.326464 -0.0330621
thorax 0.104833 0.107968 1.31792
lowerneck 0.479426 -3.99606 -3.84507
upperneck 8.32019 -5.55542 3.60465
head 2.80914 -2.78606 1.69524
rclavicle 3.74709e-014 1.63003e-014
rhumerus 52.2213 -17.8341 -0.327917
rradius 59.6083
rwrist -38.7131
rhand 8.73501 10.4906
rfingers 7.12502
rthumb 33.9256 -16.3097
lclavicle 3.74709e-014 1.63003e-014
lhumerus 57.863 17.708 4.54911
lradius 67.5996
lwrist 25.9271
lhand 12.2841 23.4549
lfingers 7.12502
lthumb 37.2894 49.444
rfemur -20.04 10.4405 13.5391
rtibia 34.9829
rfoot -16.3314 -5.4127
rtoes -17.8983
lfemur -9.2253 12.8869 -23.6317
ltibia 31.1816
lfoot -26.0659 18.1558
ltoes -12.6303
417
root 0.55927 17.7154 -0.381999 -0.00410806 -26.4649 3.53906
lowerback 7.75275 0.378987 -2.57207
upperback 4.36648 0.30097 -0.000495287
thorax 0.152046 0.0918181 1.42069
lowerneck 0.477503 -4.00886 -3.92291
upperneck 8.31525 -5.57172 3.61894
head 2.81214 -2.79605 1.71323
rclavicle -4.80065e-014 1.11319e-014
rhumerus 52.0422 -17.746 -0.0809079
rradius 59.941
rwrist -38.4989
rhand 9.05594 10.6367
rfingers 7.12502
rthumb 34.2304 -16.0956
lclavicle -4.80065e-014 1.11319e-014
lhumerus 57.69 17.5159 4.07594
lradius 67.866
lwrist 25.6423
lhand 12.5508 23.5086
lfingers 7.12502
lthumb 37.5415 49.4311
rfemur -19.9508 10.4058 13.5318
rtibia 34.9457
rfoot -16.3564 -5.42596
rtoes -17.9632
lfemur -9.13567 12.782 -23.6378
ltibia 31.0713
lfoot -26.0214 18.1851
ltoes -12.1322
418
root 0.555184 17.7153 -0.383212 -0.0127432 -26.4417 3.60831
lowerback 7.71401 0.380442 -2.70791
upperback 4.38095 0.295712 0.0335717
thorax 0.18828 0.0858591 1.5326
lowerneck 0.568345 -4.02483 -4.02455
upperneck 8.24913 -5.58972 3.58747
head 2.7766 -2.80976 1.72218
rclavicle 5.56597e-015 -4.37326e-015
rhumerus 51.9005 -17.8048 0.04644
rradius 60.3284
rwrist -38.3908
rhand 9.13421 10.7879
rfingers 7.12502
rthumb 34.3047 -15.9277
lclavicle 5.56597e-015 -4.37326e-015
lhumerus 57.5205 17.4169 3.78739
lradius 68.1899
lwrist 25.3667
lhand 12.7458 23.6755
lfingers 7.12502
lthumb 37.7257 49.5488
rfemur -19.9646 10.3893 13.4719
rtibia 34.9264
rfoot -16.3346 -5.45834
rtoes -17.9493
lfemur -9.09816 12.7847 -23.7035
ltibia 30.9746
lfoot -25.9018 18.1829
ltoes -12.798
419
root 0.553723 17.7146 -0.384522 0.0230764 -26.4281 3.5727
lowerback 7.71029 0.403013 -2.67875
upperback 4.42165 0.328007 0.0575998
thorax 0.230881 0.1011 1.53867
lowerneck 0.565064 -4.08564 -3.98159
upperneck 8.19464 -5.66038 3.45956
head 2.75504 -2.84664 1.6706
rclavicle -3.93594e-014 -1.19271e-015
rhumerus 51.6636 -18.0538 0.0799082
rradius 60.7485
rwrist -38.3384
rhand 9.03672 10.8976
rfingers 7.12502
rthumb 34.2121 -15.8388
lclavicle -3.93594e-014 -1.19271e-015
lhumerus 57.4693 17.4683 3.65815
lradius 68.4845
lwrist 25.1283
lhand 12.824 23.6715
lfingers 7.12502
lthumb 37.7997 49.5249
rfemur -19.9907 10.3765 13.5064
rtibia 34.919
rfoot -16.3449 -5.41409
rtoes -17.7228
lfemur -9.08791 12.7839 -23.6738
ltibia 30.92
lfoot -25.7886 18.2034
ltoes -13.3642
420
root 0.553147 17.7152 -0.386484 0.0253145 -26.3825 3.57158
lowerback 7.77007 0.42241 -2.65658
upperback 4.45669 0.353493 0.078047
thorax 0.232948 0.113424 1.54526
lowerneck 0.58581 -4.14364 -4.02363
upperneck 8.1447 -5.73117 3.39205
head 2.73637 -2.88476 1.65441
rclavicle -7.84206e-014 1.07344e-014
rhumerus 51.4821 -18.4132 -0.0176395
rradius 61.1653
rwrist -38.4212
rhand 8.86603 10.9707
rfingers 7.12502
rthumb 34.05 -15.8019
lclavicle -7.84206e-014 1.07344e-014
lhumerus 57.4444 17.6228 3.72311
lradius 68.7898
lwrist 25.0562
lhand 12.7542 23.5338
lfingers 7.12502
lthumb 37.7337 49.405
rfemur -19.9978 10.3469 13.5109
rtibia 34.9435
rfoot -16.3713 -5.42198
rtoes -17.7498
lfemur -9.08737 12.7265 -23.6735
ltibia 30.9
lfoot -25.7999 18.2167
ltoes -13.17
421
root 0.555748 17.7162 -0.389324 0.112677 -26.3358 3.56878
lowerback 7.79792 0.400827 -2.65341
upperback 4.42228 0.32438 0.118236
thorax 0.183181 0.099637 1.58691
lowerneck 0.824384 -4.14148 -4.09726
upperneck 7.98971 -5.72497 3.30425
head 2.63973 -2.88817 1.64394
rclavicle -2.85256e-014 7.95139e-016
rhumerus 51.5002 -18.8136 -0.294092
rradius 61.5846
rwrist -38.7076
rhand 8.66621 10.8727
rfingers 7.12502
rthumb 33.8602 -15.942
lclavicle -2.85256e-014 7.95139e-016
lhumerus 57.2851 17.7925 3.80711
lradius 69.104
lwrist 25.1665
lhand 12.6456 23.4897
lfingers 7.12502
lthumb 37.6311 49.3884
rfemur -20.1033 10.2759 13.4878
rtibia 34.9602
rfoot -16.3368 -5.42013
rtoes -17.6352
lfemur -9.23011 12.6741 -23.7028
ltibia 30.9528
lfoot -25.839 18.2231
ltoes -12.9855
422
root 0.557489 17.7159 -0.394308 0.229056 -26.3146 3.60277
lowerback 7.79618 0.382031 -2.70536
upperback 4.38296 0.296187 0.141265
thorax 0.144634 0.0855111 1.64189
lowerneck 1.00451 -4.17301 -4.0959
upperneck 7.94917 -5.76527 3.19838
head 2.59076 -2.91244 1.61162
rclavicle 1.09332e-014 -2.38542e-015
rhumerus 51.5911 -19.3109 -0.722387
rradius 61.9367
rwrist -38.9448
rhand 8.24421 10.8772
rfingers 7.12502
rthumb 33.4592 -16.025
lclavicle 1.09332e-014 -2.38542e-015
lhumerus 57.1164 18.085 3.95124
lradius 69.4491
lwrist 25.4225
lhand 12.6033 23.4513
lfingers 7.12502
lthumb 37.5911 49.3606
rfemur -20.2829 10.2371 13.4288
rtibia 34.9877
rfoot -16.2694 -5.46835
rtoes -17.706
lfemur -9.45611 12.652 -23.7717
ltibia 31.0467
lfoot -25.7627 18.2741
ltoes -13.2625
423
root 0.55843 17.7155 -0.40094 0.318076 -26.2972 3.56769
lowerback 7.87995 0.354274 -2.70628
upperback 4.34643 0.256798 0.188717
thorax 0.0624403 0.066874 1.69407
lowerneck 0.75167 -4.25859 -4.08045
upperneck 8.49668 -5.87108 3.00833
head 2.81724 -2.96862 1.53595
rclavicle 9.93923e-015 -2.38542e-015
rhumerus 51.7939 -19.8898 -1.22495
rradius 62.1866
rwrist -39.2257
rhand 7.72832 10.8716
rfingers 7.12502
rthumb 32.9687 -16.1352
lclavicle 9.93923e-015 -2.38542e-015
lhumerus 57.0007 18.44 4.22843
lradius 69.7095
lwrist 25.8341
lhand 12.3479 23.4321
lfingers 7.12502
lthumb 37.3497 49.4053
rfemur -20.4031 10.2306 13.454
rtibia 35.0203
rfoot -16.2768 -5.48545
rtoes -17.7965
lfemur -9.64339 12.6873 -23.7438
ltibia 31.1786
lfoot -25.691 18.2189
ltoes -13.3752
424
root 0.561133 17.7139 -0.409679 0.398291 -26.2544 3.53206
lowerback 8.01397 0.289901 -2.72609
upperback 4.30636 0.166332 0.275372
thorax -0.0484833 0.0224311 1.8014
lowerneck 0.48642 -4.26775 -4.21923
upperneck 9.0494 -5.86486 2.76165
head 3.04931 -2.97668 1.47106
rclavicle 2.68359e-014 -3.18055e-015
rhumerus 52.2481 -20.5415 -1.87868
rradius 62.2847
rwrist -39.3286
rhand 7.3338 10.9394
rfingers 7.12502
rthumb 32.5934 -16.1457
lclavicle 2.68359e-014 -3.18055e-015
lhumerus 56.8667 18.8488 4.67769
lradius 69.9051
lwrist 26.1445
lhand 12.0085 23.5099
lfingers 7.12502
lthumb 37.0287 49.5669
rfemur -20.5323 10.1956 13.475
rtibia 35.0768
rfoot -16.2643 -5.43884
rtoes -17.645
lfemur -9.8278 12.7204 -23.7151
ltibia 31.3121
lfoot -25.7068 18.0904
ltoes -13.134
425
root 0.564324 17.711 -0.41547 0.542896 -26.2275 3.45827
lowerback 8.06994 0.263172 -2.62249
upperback 4.28791 0.136572 0.314933
thorax -0.0970511 0.0096807 1.78631
lowerneck 0.731207 -4.1971 -4.37036
upperneck 8.93406 -5.77257 2.73999
head 2.96606 -2.93814 1.49871
rclavicle 5.54609e-014 8.74653e-015
rhumerus 52.6018 -21.2892 -2.60716
rradius 62.355
rwrist -39.325
rhand 6.80269 11.1641
rfingers 7.12502
rthumb 32.0879 -16.0242
lclavicle 5.54609e-014 8.74653e-015
lhumerus 56.9245 19.3538 5.25094
lradius 70.0364
lwrist 26.3949
lhand 11.8119 23.5402
lfingers 7.12502
lthumb 36.8428 49.6451
rfemur -20.7134 10.1706 13.5218
rtibia 35.146
rfoot -16.2518 -5.44268
rtoes -17.6148
lfemur -10.0526 12.7522 -23.6609
ltibia 31.4591
lfoot -25.8502 17.8287
ltoes -12.3054
